<svg width="21" height="21" viewBox="0 0 21 21" fill="none" xmlns="http://www.w3.org/2000/svg">
<g clip-path="url(#clip0_223_491)">
<path d="M14.454 5.89731C15.6128 7.05681 16.1925 7.63581 16.4078 8.38806C16.6238 9.14031 16.4393 9.93906 16.0703 11.5358L15.858 12.4568C15.5483 13.8008 15.393 14.4728 14.9333 14.9333C14.4735 15.3938 13.8008 15.5483 12.4568 15.8581L11.5358 16.0711C9.93829 16.4393 9.14029 16.6238 8.38804 16.4086C7.63579 16.1926 7.05679 15.6128 5.89804 14.4541L4.52554 13.0816C2.50729 11.0641 1.50004 10.0561 1.50004 8.80356C1.50004 7.55031 2.50804 6.54231 4.52479 4.52556C6.54229 2.50806 7.55029 1.50006 8.80354 1.50006C10.056 1.50006 11.0648 2.50806 13.0815 4.52481L14.454 5.89731Z" stroke="#4D4D4D" stroke-width="1.125"/>
<path d="M10.4842 10.2802C9.89837 10.8659 9.89837 11.8157 10.4842 12.4015C11.0699 12.9873 12.0197 12.9873 12.6055 12.4015C13.1913 11.8157 13.1913 10.8659 12.6055 10.2802C12.0197 9.69437 11.0699 9.69437 10.4842 10.2802Z" stroke="#4D4D4D" stroke-width="1.125"/>
<path d="M9.34357 4.12486L4.10932 9.35986" stroke="#4D4D4D" stroke-width="1.125" stroke-linecap="round"/>
</g>
<path d="M19.4286 16.1904H16.5714V19.3651C16.5714 19.5334 16.5112 19.6949 16.4041 19.814C16.2969 19.9331 16.1516 20 16 20C15.8484 20 15.7031 19.9331 15.5959 19.814C15.4888 19.6949 15.4286 19.5334 15.4286 19.3651V16.1904H12.5714C12.4199 16.1904 12.2745 16.1236 12.1674 16.0045C12.0602 15.8854 12 15.7239 12 15.5555C12 15.3871 12.0602 15.2256 12.1674 15.1066C12.2745 14.9875 12.4199 14.9206 12.5714 14.9206H15.4286V11.746C15.4286 11.5776 15.4888 11.4161 15.5959 11.297C15.7031 11.178 15.8484 11.1111 16 11.1111C16.1516 11.1111 16.2969 11.178 16.4041 11.297C16.5112 11.4161 16.5714 11.5776 16.5714 11.746V14.9206H19.4286C19.5801 14.9206 19.7255 14.9875 19.8326 15.1066C19.9398 15.2256 20 15.3871 20 15.5555C20 15.7239 19.9398 15.8854 19.8326 16.0045C19.7255 16.1236 19.5801 16.1904 19.4286 16.1904Z" fill="white"/>
<defs>
<clipPath id="clip0_223_491">
<rect width="18" height="18" fill="white" transform="translate(18 18) rotate(-180)"/>
</clipPath>
</defs>
</svg>
