<svg width="52" height="29" viewBox="0 0 52 29" fill="none" xmlns="http://www.w3.org/2000/svg">
<path d="M22.3205 7.7299C22.3454 7.7128 22.375 7.70365 22.4053 7.70365C22.4356 7.70365 22.4651 7.7128 22.4901 7.7299L24.1009 8.64865C24.1623 8.67756 24.2202 8.71331 24.2735 8.75523C24.287 8.77323 24.2962 8.79402 24.3006 8.81607C24.3049 8.83812 24.3042 8.86085 24.2986 8.88261C24.293 8.90437 24.2826 8.92458 24.2681 8.94177C24.2536 8.95896 24.2355 8.97268 24.215 8.98192L22.5712 9.92167C22.5066 9.9547 22.4436 10.0102 22.3685 9.98923C22.336 9.98081 22.3075 9.96106 22.2883 9.93355C22.269 9.90603 22.2602 9.87254 22.2634 9.83911V7.88753C22.2607 7.8598 22.2644 7.83181 22.2743 7.80576C22.2842 7.77971 22.3 7.75631 22.3205 7.73741V7.7299ZM27.5102 4.94215C28.1242 4.93164 28.7367 4.94215 29.3491 4.94215L31.0981 11.2683L31.1401 11.3253C31.5139 10.0598 31.8652 8.78976 32.23 7.52274L32.9671 4.94365H34.7145C35.3495 7.06937 35.9755 9.19659 36.6135 11.3208C36.6676 11.2983 36.6646 11.2292 36.6826 11.1827C37.231 9.10301 37.782 7.02383 38.3354 4.94515H40.0243C39.3237 7.36511 38.6201 9.78506 37.9136 12.205C37.852 12.4062 37.7995 12.6103 37.7334 12.8055H35.3645C34.8571 10.977 34.3737 9.13954 33.8708 7.30956L33.8378 7.25402C33.7477 7.48821 33.6877 7.73591 33.6186 7.9761L32.2225 12.8025H29.8596C29.0729 10.1844 28.3028 7.56027 27.5102 4.94365V4.94215ZM22.6132 4.72747C23.345 4.64977 24.0843 4.76817 24.7553 5.07052C25.4262 5.37287 26.0046 5.84829 26.4312 6.44799C26.8578 7.04769 27.1171 7.75007 27.1826 8.48308C27.248 9.21609 27.1173 9.95332 26.8038 10.6191C26.4903 11.2849 26.0053 11.8554 25.3986 12.2718C24.7918 12.6883 24.0852 12.9359 23.3512 12.9891C22.6172 13.0424 21.8823 12.8994 21.2218 12.5748C20.5613 12.2502 19.9991 11.7558 19.5928 11.1422C19.0714 10.3578 18.8351 9.41821 18.9232 8.48051C19.0107 7.52507 19.4259 6.62928 20.0985 5.945C20.771 5.26072 21.6594 4.83154 22.6132 4.72747ZM22.7513 6.3698C22.182 6.44548 21.6552 6.71209 21.257 7.12604C20.8589 7.54 20.613 8.07679 20.5595 8.64865C20.5112 9.15648 20.6259 9.6665 20.8868 10.1048C21.1205 10.5038 21.4589 10.8314 21.8653 11.0521C22.2717 11.2727 22.7307 11.3781 23.1927 11.3568C23.7299 11.324 24.2424 11.1192 24.6542 10.7726C25.066 10.4261 25.3554 9.95614 25.4795 9.43239C25.6035 8.90863 25.5557 8.35884 25.3432 7.86434C25.1306 7.36984 24.7645 6.95689 24.2991 6.68656C23.832 6.41382 23.288 6.3025 22.7513 6.3698ZM15.4464 2.00577H17.1368V10.9485C17.1287 11.0309 17.1506 11.1135 17.1983 11.1812C17.2251 11.2065 17.2567 11.2261 17.2913 11.2388C17.3259 11.2514 17.3627 11.2568 17.3995 11.2548H18.4744V12.789C18.0705 12.7995 17.6652 12.789 17.2599 12.789C16.9194 12.8203 16.576 12.7867 16.2481 12.6899C16.1071 12.6339 15.9791 12.5496 15.8719 12.4421C15.7648 12.3347 15.6807 12.2065 15.625 12.0654C15.5011 11.7522 15.4404 11.4175 15.4464 11.0806C15.4434 8.05917 15.4434 5.03422 15.4464 2.00577ZM11.4232 2.47415C11.6106 2.30849 11.8291 2.18166 12.0659 2.101C12.3027 2.02035 12.5532 1.98747 12.8028 2.00427H14.7138V3.3989H12.9724C12.9201 3.39411 12.8675 3.40244 12.8192 3.42315C12.771 3.44387 12.7287 3.47629 12.6962 3.5175C12.6462 3.60099 12.6246 3.69843 12.6346 3.79522V5.23338H14.346V6.62351C13.7741 6.63852 13.2006 6.62351 12.6271 6.62351V12.795H10.9458V6.62651C10.6305 6.63402 10.3153 6.62651 10 6.62651V5.23038H10.9533V3.68263C10.9469 3.23405 11.1155 2.80063 11.4232 2.47415Z" fill="#3C3C3C"/>
<path d="M8.4549 9.90909V12.6364H0.571378V9.90909H8.4549ZM2.36115 6.77273H5.99183V18.9773C5.99183 19.3125 6.04297 19.5739 6.14524 19.7614C6.24751 19.9432 6.38956 20.071 6.57138 20.1449C6.75888 20.2187 6.97479 20.2557 7.21911 20.2557C7.38956 20.2557 7.56001 20.2415 7.73047 20.2131C7.90092 20.179 8.03161 20.1534 8.12251 20.1364L8.69354 22.8381C8.51172 22.8949 8.25604 22.9602 7.92649 23.0341C7.59695 23.1136 7.19638 23.1619 6.72479 23.179C5.84979 23.2131 5.08274 23.0966 4.42365 22.8295C3.77024 22.5625 3.26172 22.1477 2.89808 21.5852C2.53445 21.0227 2.35547 20.3125 2.36115 19.4545V6.77273ZM14.5529 23.2472C13.7177 23.2472 12.9734 23.1023 12.32 22.8125C11.6665 22.517 11.1495 22.0824 10.7688 21.5085C10.3938 20.929 10.2063 20.2074 10.2063 19.3438C10.2063 18.6165 10.3398 18.0057 10.6069 17.5114C10.8739 17.017 11.2376 16.6193 11.6978 16.3182C12.158 16.017 12.6808 15.7898 13.266 15.6364C13.8569 15.483 14.4762 15.375 15.1239 15.3125C15.8853 15.233 16.4989 15.1591 16.9648 15.0909C17.4308 15.017 17.7688 14.9091 17.979 14.767C18.1893 14.625 18.2944 14.4148 18.2944 14.1364V14.0852C18.2944 13.5455 18.1239 13.1278 17.783 12.8324C17.4478 12.5369 16.9705 12.3892 16.3512 12.3892C15.6978 12.3892 15.1779 12.5341 14.7915 12.8239C14.4052 13.108 14.1495 13.4659 14.0245 13.8977L10.6665 13.625C10.837 12.8295 11.1722 12.142 11.6722 11.5625C12.1722 10.9773 12.8171 10.5284 13.6069 10.2159C14.4023 9.89773 15.3228 9.73864 16.3683 9.73864C17.0955 9.73864 17.7915 9.82386 18.4563 9.99432C19.1268 10.1648 19.7205 10.429 20.2376 10.7869C20.7603 11.1449 21.1722 11.6051 21.4734 12.1676C21.7745 12.7244 21.9251 13.392 21.9251 14.1705V23H18.4819V21.1847H18.3796C18.1694 21.5938 17.8881 21.9545 17.5359 22.267C17.1836 22.5739 16.7603 22.8153 16.266 22.9915C15.7717 23.1619 15.2006 23.2472 14.5529 23.2472ZM15.5927 20.7415C16.1268 20.7415 16.5984 20.6364 17.0075 20.4261C17.4165 20.2102 17.7376 19.9205 17.9705 19.5568C18.2035 19.1932 18.32 18.7812 18.32 18.321V16.9318C18.2063 17.0057 18.0501 17.0739 17.8512 17.1364C17.658 17.1932 17.4393 17.2472 17.195 17.2983C16.9506 17.3437 16.7063 17.3864 16.462 17.4261C16.2177 17.4602 15.9961 17.4915 15.7972 17.5199C15.3711 17.5824 14.9989 17.6818 14.6808 17.8182C14.3626 17.9545 14.1154 18.1392 13.9393 18.3722C13.7631 18.5994 13.6751 18.8835 13.6751 19.2244C13.6751 19.7188 13.854 20.0966 14.212 20.358C14.5756 20.6136 15.0359 20.7415 15.5927 20.7415ZM30.6396 28.1818C29.4634 28.1818 28.4549 28.0199 27.614 27.696C26.7788 27.3778 26.114 26.9432 25.6197 26.392C25.1254 25.8409 24.8043 25.2216 24.6566 24.5341L28.0146 24.0824C28.1168 24.3438 28.2788 24.5881 28.5004 24.8153C28.7219 25.0426 29.0146 25.2244 29.3782 25.3608C29.7475 25.5028 30.1964 25.5739 30.7248 25.5739C31.5146 25.5739 32.1651 25.3807 32.6765 24.9943C33.1935 24.6136 33.4521 23.9744 33.4521 23.0767V20.6818H33.2987C33.1396 21.0455 32.9009 21.3892 32.5827 21.7131C32.2646 22.0369 31.8555 22.3011 31.3555 22.5057C30.8555 22.7102 30.2589 22.8125 29.5657 22.8125C28.5827 22.8125 27.6879 22.5852 26.881 22.1307C26.0799 21.6705 25.4407 20.9687 24.9634 20.0256C24.4918 19.0767 24.256 17.8778 24.256 16.429C24.256 14.946 24.4975 13.7074 24.9805 12.7131C25.4634 11.7187 26.1055 10.9744 26.9066 10.4801C27.7134 9.9858 28.5969 9.73864 29.5572 9.73864C30.2901 9.73864 30.9038 9.86364 31.3981 10.1136C31.8924 10.358 32.2901 10.6648 32.5913 11.0341C32.8981 11.3977 33.1339 11.7557 33.2987 12.108H33.435V9.90909H37.0401V23.1278C37.0401 24.2415 36.7674 25.1733 36.2219 25.9233C35.6765 26.6733 34.9208 27.2358 33.9549 27.6108C32.9947 27.9915 31.8896 28.1818 30.6396 28.1818ZM30.7163 20.0852C31.3015 20.0852 31.7958 19.9403 32.1992 19.6506C32.6083 19.3551 32.9208 18.9347 33.1367 18.3892C33.3583 17.8381 33.4691 17.179 33.4691 16.4119C33.4691 15.6449 33.3612 14.9801 33.1452 14.4176C32.9293 13.8494 32.6168 13.4091 32.2077 13.0966C31.7987 12.7841 31.3015 12.6278 30.7163 12.6278C30.1197 12.6278 29.6168 12.7898 29.2077 13.1136C28.7987 13.4318 28.489 13.875 28.2788 14.4432C28.0685 15.0114 27.9634 15.6676 27.9634 16.4119C27.9634 17.1676 28.0685 17.821 28.2788 18.3722C28.4947 18.9176 28.8043 19.3409 29.2077 19.642C29.6168 19.9375 30.1197 20.0852 30.7163 20.0852ZM50.8214 13.642L47.4975 13.8466C47.4407 13.5625 47.3185 13.3068 47.131 13.0795C46.9435 12.8466 46.6964 12.6619 46.3896 12.5256C46.0884 12.3835 45.7276 12.3125 45.3072 12.3125C44.7447 12.3125 44.2702 12.4318 43.8839 12.6705C43.4975 12.9034 43.3043 13.2159 43.3043 13.608C43.3043 13.9205 43.4293 14.1847 43.6793 14.4006C43.9293 14.6165 44.3583 14.7898 44.9663 14.9205L47.3356 15.3977C48.6083 15.6591 49.5572 16.0795 50.1822 16.6591C50.8072 17.2386 51.1197 18 51.1197 18.9432C51.1197 19.8011 50.8668 20.554 50.3612 21.2017C49.8612 21.8494 49.1737 22.3551 48.2987 22.7188C47.4293 23.0767 46.4265 23.2557 45.2901 23.2557C43.5572 23.2557 42.1765 22.8949 41.1481 22.1733C40.1254 21.446 39.5259 20.4574 39.3498 19.2074L42.9208 19.0199C43.0288 19.5483 43.2901 19.9517 43.7049 20.2301C44.1197 20.5028 44.6509 20.6392 45.2987 20.6392C45.935 20.6392 46.4464 20.517 46.8327 20.2727C47.2248 20.0227 47.4237 19.7017 47.4293 19.3097C47.4237 18.9801 47.2844 18.7102 47.0117 18.5C46.739 18.2841 46.3185 18.1193 45.7504 18.0057L43.4833 17.554C42.2049 17.2983 41.2532 16.8551 40.6282 16.2244C40.0089 15.5937 39.6992 14.7898 39.6992 13.8125C39.6992 12.9716 39.9265 12.2472 40.381 11.6392C40.8413 11.0312 41.4862 10.5625 42.3157 10.233C43.1509 9.90341 44.1282 9.73864 45.2475 9.73864C46.9009 9.73864 48.2021 10.0881 49.1509 10.7869C50.1055 11.4858 50.6623 12.4375 50.8214 13.642Z" fill="white"/>
</svg>
